<svg version="1.1"
  baseProfile="full"
  width="32"
  height="32"
  viewBox="0 0 32 32"
  preserveAspectRatio="xMinYMin meet"
  xmlns="http://www.w3.org/2000/svg">

  <g transform="translate(.7 1) scale(.65)">
    <path fill="none" stroke="#f6a932" stroke-width="3" stroke-linecap="round"
      d="M 22.5 5
      q -15 -4.5 -14.5 6
      q 0 3 -2 6
      q -4 6.5 1 14
      q 1 1.5 2 2
      q 3.5 1.5 6 3
      q 6 4 16 1
      q 17 -6 2 -25
      q -1.75 -2 -2.5 -4
      q -1 -2.5 -5 -2.5
      q -2 -.2 -2.75 -.4
      "/>

    <path fill="#f6a932" stroke-width="0" stroke-linecap="round" fill-rule="evenodd"
      d="M 19 10.5
      a 6.75 6.75 0 1 1 -.001 0
      m 0.2 1.25
      a 5.5 5.5 0 0 0 -5.168 3.619
      a 1.8 1.8 0 1 0 3.491 0.616
      q .2 -2.5 2.8 -2.2
      a .95 .95 0 0 0 .001 -1.9
      "/>
  </g>
</svg>
