<svg class="logo" baseProfile="full"
  viewBox="0 0 145 74"
  preserveAspectRatio="xMidYMin meet"
  xmlns="http://www.w3.org/2000/svg">

  <rect x="0" y="0" width="145" height="74" fill="#121212" />

  <defs>
    <style type="text/css">
      @import url('https://fonts.googleapis.com/css?family=Amatic+SC:700&amp;text=HipolaRest');

      .hipopla,
      .resto {
        font-family: 'Amatic SC';
      }

      .hipopla {
        font-size: 50px;
        fill: #62e6f3;
        letter-spacing: .08em;
      }

      .resto {
        font-size: 24px;
      }

      .yolk,
      .resto {
        fill: #f6a932;
      }
    </style>

    <filter id="neon">
      <feGaussianBlur in="SourceGraphic" stdDeviation="2.9" />
    </filter>
  </defs>

  <g filter="url(#neon)">
    <text class="hipopla" x="5" y="45"><tspan class="flicker flicker6">H</tspan><tspan class="flicker flicker1">i</tspan>p</text>
    <text class="hipopla" x="91" y="45"><tspan class="flicker flicker2">p</tspan>l<tspan class="flicker flicker5">a</tspan></text>
    <text class="resto" x="104" y="68">Re<tspan class="flicker flicker3">st</tspan>o</text>

    <g class="flicker flicker4 huevo" transform="translate(53.5 13) scale(.85)">
      <path fill="none" stroke="#f6a932" stroke-width="1.5" stroke-linecap="round"
        d="M 22.5 5
        q -15 -4.5 -14.5 6
        q 0 3 -2 6
        q -4 6.5 1 14
        q 1 1.5 2 2
        q 3.5 1.5 6 3
        q 6 4 16 1
        q 17 -6 2 -25
        q -1.75 -2 -2.5 -4
        q -1 -2.5 -5 -2.5
        q -2 -.2 -2.75 -.4
        "/>

      <path class="yolk" stroke-width="0" stroke-linecap="round" fill-rule="evenodd"
        d="M 19 10.5
        a 6.75 6.75 0 1 1 -.001 0
        m 0.2 1.25
        a 5.5 5.5 0 0 0 -5.168 3.619
        a 1.8 1.8 0 1 0 3.491 0.616
        q .2 -2.5 2.8 -2.2
        a .95 .95 0 0 0 .001 -1.9
        "/>
    </g>
  </g>

  <g>
    <text class="hipopla" x="5" y="45"><tspan class="flicker flicker6">H</tspan><tspan class="flicker flicker1">i</tspan>p</text>
    <text class="hipopla" x="91" y="45"><tspan class="flicker flicker2">p</tspan>l<tspan class="flicker flicker5">a</tspan></text>
    <text class="resto" x="104" y="68">Re<tspan class="flicker flicker3">st</tspan>o</text>
  </g>

  <g class="flicker flicker4 huevo" transform="translate(53.5 13) scale(.85)">
    <path fill="none" stroke="#f6a932" stroke-width="1.5" stroke-linecap="round"
      d="M 22.5 5
      q -15 -4.5 -14.5 6
      q 0 3 -2 6
      q -4 6.5 1 14
      q 1 1.5 2 2
      q 3.5 1.5 6 3
      q 6 4 16 1
      q 17 -6 2 -25
      q -1.75 -2 -2.5 -4
      q -1 -2.5 -5 -2.5
      q -2 -.2 -2.75 -.4
      "/>

    <path class="yolk" stroke-width="0" stroke-linecap="round" fill-rule="evenodd"
      d="M 19 10.5
      a 6.75 6.75 0 1 1 -.001 0
      m 0.2 1.25
      a 5.5 5.5 0 0 0 -5.168 3.619
      a 1.8 1.8 0 1 0 3.491 0.616
      q .2 -2.5 2.8 -2.2
      a .95 .95 0 0 0 .001 -1.9
      "/>
  </g>
</svg>
