<svg version="1.1"
  baseProfile="full"
  viewBox="0 0 140 72 "
  preserveAspectRatio="xMinYMin meet"
  xmlns="http://www.w3.org/2000/svg">

  <rect x="0" y="0" width="140" height="72" fill="#121212" />

  <defs>
    <style type="text/css">
      @import url('https://fonts.googleapis.com/css?family=Amatic+SC:700&amp;text=HIPOLAREST');

      .hipopla,
      .resto {
        font-family: 'Amatic SC';
      }

      .hipopla {
        font-size: 50px;
        fill: #62e6f3;
      }

      .resto {
        font-size: 24px;
      }

      .yolk,
      .resto {
        fill: #f6a932;
      }
    </style>

    <filter id="neon">
      <feGaussianBlur in="SourceGraphic" stdDeviation="2.7" />
    </filter>

    <clipPath id="clipHip">
      <path d="M0 0 h47 v46 h-47 v-46
        m 10.15 25 l .27 1.58 h 1.8 a 0.79 0.79 0 0 1 -0.001 -1.58 h -1.8
        M 26.2 42.3 l 3.1 -.3 v -2.5 a 1.35 1.35 0 0 1 -2.7 .001 l -.4 2.5
        m -.55  -31.85
        v 2.4
        a 1.175 1.175 0 0 1 2.35 -0.001
        l .5 -2.8
        z"/>
    </clipPath>
  </defs>

  <g filter="url(#neon)">
    <text class="hipopla" x="5" y="45">HIP</text>
    <text class="hipopla" x="90" y="45">PLA</text>
    <text class="resto" x="96.5" y="67">RESTO</text>

    <g transform="translate(45 5) scale(1.05)">
      <path fill="none" stroke="#f6a932" stroke-width="1.5" stroke-linecap="round"
        d="M 22.5 5
        q -15 -4.5 -14.5 6
        q 0 3 -2 6
        q -4 6.5 1 14
        q 1 1.5 2 2
        q 3.5 1.5 6 3
        q 6 4 16 1
        q 17 -6 2 -25
        q -1.75 -2 -2.5 -4
        q -1 -2.5 -5 -2.5
        q -2 -.2 -2.75 -.4
        "/>

      <path class="yolk" stroke-width="0" stroke-linecap="round" fill-rule="evenodd"
        d="M 19 10.5
        a 6.75 6.75 0 1 1 -.001 0
        m 0.2 1.25
        a 5.5 5.5 0 0 0 -5.168 3.619
        a 1.8 1.8 0 1 0 3.491 0.616
        q .2 -2.5 2.8 -2.2
        a .95 .95 0 0 0 .001 -1.9
        "/>
    </g>
  </g>

  <g>
    <text clip-path="url(#clipHip)" class="hipopla" x="5" y="45">HIP</text>
    <text class="hipopla" x="90" y="45">PLA</text>
    <text class="resto" x="96.5" y="67">RESTO</text>
  </g>

  <g transform="translate(45 5) scale(1.05)">
    <path fill="none" stroke="#f6a932" stroke-width="1.5" stroke-linecap="round"
      d="M 22.5 5
      q -15 -4.5 -14.5 6
      q 0 3 -2 6
      q -4 6.5 1 14
      q 1 1.5 2 2
      q 3.5 1.5 6 3
      q 6 4 16 1
      q 17 -6 2 -25
      q -1.75 -2 -2.5 -4
      q -1 -2.5 -5 -2.5
      q -2 -.2 -2.75 -.4
      "/>

    <path class="yolk" stroke-width="0" stroke-linecap="round" fill-rule="evenodd"
      d="M 19 10.5
      a 6.75 6.75 0 1 1 -.001 0
      m 0.2 1.25
      a 5.5 5.5 0 0 0 -5.168 3.619
      a 1.8 1.8 0 1 0 3.491 0.616
      q .2 -2.5 2.8 -2.2
      a .95 .95 0 0 0 .001 -1.9
      "/>
  </g>
</svg>
