<?xml version="1.0"?>
<svg xmlns="http://www.w3.org/2000/svg" width="260" height="260" viewBox="0 0 260 260">
  <rect x="0" y="0" width="260" height="260" fill="#121212" />
  <g fill-rule="evenodd">
    <!-- fill="#1f1f1f" -->
      <g id="i-like-food" fill="#1f1f1f">
          <path class="sandwich-left" d="M24.37 16c.2.65.39 1.32.54 2H21.17l1.17 2.34.45.9-.24.11V28a5 5 0 0 1-2.23 8.94l-.02.06a8 8 0 0 1-7.75 6h-20a8 8 0 0 1-7.74-6l-.02-.06A5 5 0 0 1-17.45 28v-6.76l-.79-1.58-.44-.9.9-.44.63-.32H-20a23.01 23.01 0 0 1 44.37-2zm-36.82 2a1 1 0 0 0-.44.1l-3.1 1.56.89 1.79 1.31-.66a3 3 0 0 1 2.69 0l2.2 1.1a1 1 0 0 0 .9 0l2.21-1.1a3 3 0 0 1 2.69 0l2.2 1.1a1 1 0 0 0 .9 0l2.21-1.1a3 3 0 0 1 2.69 0l2.2 1.1a1 1 0 0 0 .86.02l2.88-1.27a3 3 0 0 1 2.43 0l2.88 1.27a1 1 0 0 0 .85-.02l3.1-1.55-.89-1.79-1.42.71a3 3 0 0 1-2.56.06l-2.77-1.23a1 1 0 0 0-.4-.09h-.01a1 1 0 0 0-.4.09l-2.78 1.23a3 3 0 0 1-2.56-.06l-2.3-1.15a1 1 0 0 0-.45-.11h-.01a1 1 0 0 0-.44.1L.9 19.22a3 3 0 0 1-2.69 0l-2.2-1.1a1 1 0 0 0-.45-.11h-.01a1 1 0 0 0-.44.1l-2.21 1.11a3 3 0 0 1-2.69 0l-2.2-1.1a1 1 0 0 0-.45-.11h-.01zm0-2h-4.9a21.01 21.01 0 0 1 39.61 0h-2.09l-.06-.13-.26.13h-32.31zm30.35 7.68l1.36-.68h1.3v2h-36v-1.15l.34-.17 1.36-.68h2.59l1.36.68a3 3 0 0 0 2.69 0l1.36-.68h2.59l1.36.68a3 3 0 0 0 2.69 0L2.26 23h2.59l1.36.68a3 3 0 0 0 2.56.06l1.67-.74h3.23l1.67.74a3 3 0 0 0 2.56-.06zM-13.82 27l16.37 4.91L18.93 27h-32.75zm-.63 2h.34l16.66 5 16.67-5h.33a3 3 0 1 1 0 6h-34a3 3 0 1 1 0-6zm1.35 8a6 6 0 0 0 5.65 4h20a6 6 0 0 0 5.66-4H-13.1z"/>
          <path class="sandwich-right" id="path6_fill-copy" d="M284.37 16c.2.65.39 1.32.54 2H281.17l1.17 2.34.45.9-.24.11V28a5 5 0 0 1-2.23 8.94l-.02.06a8 8 0 0 1-7.75 6h-20a8 8 0 0 1-7.74-6l-.02-.06a5 5 0 0 1-2.24-8.94v-6.76l-.79-1.58-.44-.9.9-.44.63-.32H240a23.01 23.01 0 0 1 44.37-2zm-36.82 2a1 1 0 0 0-.44.1l-3.1 1.56.89 1.79 1.31-.66a3 3 0 0 1 2.69 0l2.2 1.1a1 1 0 0 0 .9 0l2.21-1.1a3 3 0 0 1 2.69 0l2.2 1.1a1 1 0 0 0 .9 0l2.21-1.1a3 3 0 0 1 2.69 0l2.2 1.1a1 1 0 0 0 .86.02l2.88-1.27a3 3 0 0 1 2.43 0l2.88 1.27a1 1 0 0 0 .85-.02l3.1-1.55-.89-1.79-1.42.71a3 3 0 0 1-2.56.06l-2.77-1.23a1 1 0 0 0-.4-.09h-.01a1 1 0 0 0-.4.09l-2.78 1.23a3 3 0 0 1-2.56-.06l-2.3-1.15a1 1 0 0 0-.45-.11h-.01a1 1 0 0 0-.44.1l-2.21 1.11a3 3 0 0 1-2.69 0l-2.2-1.1a1 1 0 0 0-.45-.11h-.01a1 1 0 0 0-.44.1l-2.21 1.11a3 3 0 0 1-2.69 0l-2.2-1.1a1 1 0 0 0-.45-.11h-.01zm0-2h-4.9a21.01 21.01 0 0 1 39.61 0h-2.09l-.06-.13-.26.13h-32.31zm30.35 7.68l1.36-.68h1.3v2h-36v-1.15l.34-.17 1.36-.68h2.59l1.36.68a3 3 0 0 0 2.69 0l1.36-.68h2.59l1.36.68a3 3 0 0 0 2.69 0l1.36-.68h2.59l1.36.68a3 3 0 0 0 2.56.06l1.67-.74h3.23l1.67.74a3 3 0 0 0 2.56-.06zM246.18 27l16.37 4.91L278.93 27h-32.75zm-.63 2h.34l16.66 5 16.67-5h.33a3 3 0 1 1 0 6h-34a3 3 0 1 1 0-6zm1.35 8a6 6 0 0 0 5.65 4h20a6 6 0 0 0 5.66-4H246.9z"/>
          <path class="chili" transform="translate(110 10)" d="M47.2,45.1c-0.2,0-16.6-4.2-21.7-27.5c-0.1-0.4-3.1-10.9-11.4-10.9c-1,0-2.1,0.2-3.2,0.5C10.1,5.3,7-0.4,0.9,0   C0.4,0.1,0,0.5,0,1.1C0,1.6,0.5,2,1.1,2c4.6-0.3,7.2,4.3,8,5.9C9,8,8.9,8,8.8,8c-0.6,0.2-4.4,1.7-5.6,5.7c-1.2,4,0.7,9.1,5.7,15   C9.5,29.5,24.9,48,41.1,48h0c2.1,0,4.2-0.3,6.2-1c0.4-0.1,0.7-0.5,0.7-1C48,45.6,47.7,45.2,47.2,45.1z M5.2,14.3   c0.9-3.2,4.3-4.4,4.3-4.4c0,0,0.1,0,0.1-0.1c1.6-0.8,3.1-1.1,4.5-1.1c1.6,0,3,0.6,4.2,1.4l-1.5,4.5L12,13c-0.5-0.2-1.1,0.1-1.3,0.6   l-1.6,4.8L5,17C4.9,16.1,4.9,15.1,5.2,14.3z M41.1,46L41.1,46c-15.3,0-30.5-18.4-30.7-18.6c-2.5-3-4.1-5.7-4.9-8.1l3.9,1.3   c0.1,0,0.2,0.1,0.3,0.1c0.4,0,0.8-0.3,0.9-0.7l1.6-4.8l4.8,1.6c0.5,0.2,1.1-0.1,1.3-0.6l1.5-4.6c2.5,2.8,3.6,6.5,3.6,6.6   c4,18.3,14.5,25.3,19.9,27.7C42.7,45.9,41.9,46,41.1,46z"/>
          <g class="lemon" transform="translate(45 80)">
            <path d="M12.7,12.7c0.4-0.4,0.4-1,0-1.4c-0.4-0.4-1-0.4-1.4,0C5.2,17.5,3,25.9,6.2,30.9c0.2,0.3,0.5,0.5,0.8,0.5   c0.2,0,0.4-0.1,0.5-0.2c0.5-0.3,0.6-0.9,0.3-1.4C5.1,25.6,7.2,18.2,12.7,12.7z"/><path d="M39.5,15.2c0.2-3.2-0.3-6.2-1.7-8.6L38,6.4c1.3-1.3,1.3-3.5,0-4.8c-1.3-1.3-3.6-1.3-4.8,0L33,1.7C30.9,0.6,28.5,0,25.8,0   c-6,0-12.6,3-17.7,8.1C0.5,15.8-2.1,26.1,1.8,33l-0.2,0.2c-0.6,0.6-1,1.5-1,2.4c0,0.9,0.4,1.8,1,2.4c1.3,1.3,3.5,1.3,4.8,0l0.2-0.2   c2.1,1.1,4.5,1.7,7.2,1.7c0.5,0,0.9,0,1.4-0.1c3.1,5.1,8.7,8.5,15.1,8.5C40.1,48,48,40,48,30.3C48,23.9,44.6,18.3,39.5,15.2z    M7,35.7c-0.2-0.1-0.4-0.2-0.5-0.2c-0.3,0-0.5,0.1-0.7,0.3L5,36.6c-0.5,0.5-1.5,0.5-2,0c-0.3-0.3-0.4-0.6-0.4-1   c0-0.4,0.1-0.7,0.4-1l0.7-0.7c0.3-0.3,0.4-0.8,0.1-1.2c-3.9-6-1.4-16,5.7-23.1C14.3,4.8,20.4,2,25.8,2c2.6,0,4.9,0.6,6.8,1.8   C33,4.1,33.6,4,33.9,3.7L34.6,3c0.5-0.5,1.5-0.5,2,0c0.6,0.6,0.5,1.5,0,2l-0.7,0.7C35.6,6,35.5,6.6,35.8,7c1.3,2,1.9,4.4,1.8,7.2   c-0.1,0-4.3-1.8-7.3-1.6c-6.6,0-12.4,3.7-15.5,9.1c-1.4,2.6-2.2,5.5-2.2,8.6c-0.3,2.5,1.3,6.7,1.5,7.1c0,0.1,0,0.1,0.1,0.2   C11.4,37.7,8.9,37,7,35.7z M30.3,46c-5.9,0-11.1-3.3-13.8-8.1c-2.2-4-2-7.5-2-7.6c0-3,0.9-5.8,2.4-8.2c2.8-4.5,7.7-7.5,13.4-7.5   c4.6,0,7.5,1.9,7.6,2c4.9,2.7,8.2,7.8,8.2,13.8C46,38.9,39,46,30.3,46z"/><path d="M40,20.6C40,20.6,40,20.5,40,20.6C40,20.5,40,20.5,40,20.6c-2.6-2.5-6-4.1-9.8-4.1c-3.8,0-7.2,1.5-9.7,4c0,0,0,0,0,0   c0,0,0,0,0,0c-2.5,2.5-4,5.9-4,9.7c0,3.8,1.5,7.2,4,9.7c0,0,0,0,0,0c0,0,0,0,0,0c2.5,2.5,5.9,4,9.7,4c3.8,0,7.2-1.5,9.7-4   c0,0,0,0,0,0c0,0,0,0,0,0c2.5-2.5,4-5.9,4-9.7C44.1,26.5,42.5,23.1,40,20.6z M39.3,37.9l-6.6-6.6H42C41.8,33.8,40.8,36,39.3,37.9z    M18.6,31.3h9.3l-6.6,6.6C19.8,36,18.8,33.8,18.6,31.3z M21.3,22.7l6.6,6.6h-9.3C18.8,26.8,19.8,24.5,21.3,22.7z M31.3,18.5   c2.5,0.2,4.8,1.2,6.6,2.7l-6.6,6.6V18.5z M29.3,27.9l-6.6-6.6c1.8-1.5,4.1-2.5,6.6-2.7V27.9z M29.3,32.7V42   c-2.5-0.2-4.8-1.2-6.6-2.7L29.3,32.7z M31.3,32.7l6.6,6.6c-1.8,1.5-4.1,2.5-6.6,2.7V32.7z M32.7,29.3l6.6-6.6   c1.5,1.8,2.5,4.1,2.7,6.6H32.7z"/>
          </g>
          <g class="baguette" transform="translate(195 85)">
            <path d="M39.5,12.6c-0.8,0-1.4-0.5-1.7-1.1c-0.4-1-0.9-1.9-1.6-2.5c-0.7-0.7-1.4-1-2.1-1.1c-0.5,0-1,0.4-1.1,0.9   c0,0.6,0.4,1,0.9,1.1c0.1,0,0.4,0.1,0.8,0.5c0.5,0.4,0.8,1.1,1.1,1.8c0.5,1.4,1.8,2.3,3.4,2.4c0,0,0,0,0.1,0c0.5,0,1-0.4,1-0.9   C40.4,13.1,40,12.7,39.5,12.6z"/><path d="M34.4,17.7c-0.8,0-1.4-0.5-1.7-1.1c-0.4-1-0.9-1.9-1.6-2.5c-0.7-0.7-1.4-1-2.1-1.1c-0.5,0-1,0.4-1.1,0.9   c0,0.6,0.4,1,0.9,1.1c0.1,0,0.4,0.1,0.8,0.5c0.5,0.4,0.8,1.1,1.1,1.8c0.5,1.4,1.8,2.3,3.4,2.4c0,0,0,0,0.1,0c0.5,0,1-0.4,1-0.9   C35.4,18.2,35,17.7,34.4,17.7z"/><path d="M29.4,22.7c-0.8,0-1.4-0.5-1.7-1.1c-0.4-1-0.9-1.9-1.6-2.5c-0.7-0.7-1.4-1-2.1-1.1c-0.6,0-1,0.4-1.1,0.9   c0,0.6,0.4,1,0.9,1.1c0.1,0,0.4,0.1,0.8,0.5c0.5,0.4,0.8,1.1,1.1,1.8c0.5,1.4,1.8,2.3,3.4,2.4c0,0,0,0,0.1,0c0.5,0,1-0.4,1-0.9   C30.3,23.2,29.9,22.8,29.4,22.7z"/><path d="M24.3,27.8c-0.8,0-1.4-0.5-1.7-1.1c-0.4-1-0.9-1.9-1.6-2.5c-0.7-0.7-1.4-1-2.1-1.1c-0.5,0-1,0.4-1.1,0.9   c0,0.6,0.4,1,0.9,1.1c0.1,0,0.4,0.1,0.8,0.5c0.5,0.4,0.8,1.1,1.1,1.8c0.5,1.4,1.8,2.3,3.4,2.4c0,0,0,0,0.1,0c0.5,0,1-0.4,1-0.9   C25.3,28.3,24.9,27.8,24.3,27.8z"/><path d="M19.3,32.8c-0.8,0-1.4-0.5-1.7-1.1c-0.4-1-0.9-1.9-1.6-2.5c-0.7-0.7-1.4-1-2.1-1.1c-0.6,0-1,0.4-1.1,0.9   c0,0.6,0.4,1,0.9,1.1c0.1,0,0.4,0.1,0.8,0.5c0.5,0.4,0.8,1.1,1.1,1.8c0.5,1.4,1.8,2.3,3.4,2.4c0,0,0,0,0.1,0c0.5,0,1-0.4,1-0.9   C20.2,33.3,19.8,32.9,19.3,32.8z"/><path d="M14.2,37.9c-0.8,0-1.4-0.5-1.7-1.1c-0.4-1-0.9-1.9-1.6-2.5c-0.7-0.7-1.4-1-2.1-1.1c-0.5,0-1,0.4-1.1,0.9   c0,0.6,0.4,1,0.9,1.1c0.1,0,0.4,0.1,0.8,0.5c0.5,0.4,0.8,1.1,1.1,1.8c0.5,1.4,1.8,2.3,3.4,2.4c0,0,0,0,0.1,0c0.5,0,1-0.4,1-0.9   C15.2,38.4,14.8,37.9,14.2,37.9z"/><path d="M46.5,1.5c-1-1-2.4-1.5-4.1-1.5C36.2,0,25.6,6.4,16,16C10.1,21.9,5.3,28.2,2.5,33.8c-3,5.9-3.3,10.4-1,12.7   c1,1,2.4,1.5,4.1,1.5c6.2,0,16.8-6.4,26.4-16C43.1,20.9,51.5,6.5,46.5,1.5z M30.6,30.6C21.5,39.7,11.2,46,5.6,46   c-1.2,0-2.1-0.3-2.7-0.9c-1.6-1.6-1-5.5,1.4-10.4c2.7-5.4,7.3-11.5,13.1-17.3C26.5,8.3,36.8,2,42.4,2c1.2,0,2.1,0.3,2.7,0.9   C48.2,6,43,18.1,30.6,30.6z"/>
          </g>
          <path class="taco" d="
            M243 191a1 1 0 0 0 0 2h2a1 1 0 0 0 0-2h-2z
            m19 9a1 1 0 0 1 1-1h2a1 1 0 0 1 0 2h-2a1 1 0 0 1-1-1z
            m-14 5a1 1 0 0 0 0 2h2a1 1 0 0 0 0-2h-2z
            m-25 1a1 1 0 0 0 0 2h2a1 1 0 0 0 0-2h-2z
            m5 4a1 1 0 0 0 0 2h2a1 1 0 0 0 0-2h-2z
            m9 0a1 1 0 0 1 1-1h2a1 1 0 0 1 0 2h-2a1 1 0 0 1-1-1z
            m15 1a1 1 0 0 1 1-1h2a1 1 0 0 1 0 2h-2a1 1 0 0 1-1-1z
            m12-2a1 1 0 0 0 0 2h2a1 1 0 0 0 0-2h-2z
            m-11-14a1 1 0 0 1 1-1h2a1 1 0 0 1 0 2h-2a1 1 0 0 1-1-1z
            m-19 0a1 1 0 0 0 0 2h2a1 1 0 0 0 0-2h-2z
            m6 5a1 1 0 0 1 1-1h2a1 1 0 0 1 0 2h-2a1 1 0 0 1-1-1z
            m-25 15c0-.47.01-.94.03-1.4a5 5 0 0 1-1.7-8 3.99 3.99 0 0 1 1.88-5.18 5 5 0 0 1 3.4-6.22 3 3 0 0 1 1.46-1.05 5 5 0 0 1 7.76-3.27A30.86 30.86 0 0 1 246 184c6.79 0 13.06 2.18 18.17 5.88a5 5 0 0 1 7.76 3.27 3 3 0 0 1 1.47 1.05 5 5 0 0 1 3.4 6.22 4 4 0 0 1 1.87 5.18 4.98 4.98 0 0 1-1.7 8c.02.46.03.93.03 1.4v1h-62v-1z
            m.83-7.17a30.9 30.9 0 0 0-.62 3.57 3 3 0 0 1-.61-4.2c.37.28.78.49 1.23.63z
            m1.49-4.61c-.36.87-.68 1.76-.96 2.68a2 2 0 0 1-.21-3.71c.33.4.73.75 1.17 1.03z
            m2.32-4.54c-.54.86-1.03 1.76-1.49 2.68a3 3 0 0 1-.07-4.67 3 3 0 0 0 1.56 1.99z
            m1.14-1.7c.35-.5.72-.98 1.1-1.46a1 1 0 1 0-1.1 1.45z
            m5.34-5.77c-1.03.86-2 1.79-2.9 2.77a3 3 0 0 0-1.11-.77 3 3 0 0 1 4-2z
            m42.66 2.77c-.9-.98-1.87-1.9-2.9-2.77a3 3 0 0 1 4.01 2 3 3 0 0 0-1.1.77z
            m1.34 1.54c.38.48.75.96 1.1 1.45a1 1 0 1 0-1.1-1.45z
            m3.73 5.84c-.46-.92-.95-1.82-1.5-2.68a3 3 0 0 0 1.57-1.99 3 3 0 0 1-.07 4.67z
            m1.8 4.53c-.29-.9-.6-1.8-.97-2.67.44-.28.84-.63 1.17-1.03a2 2 0 0 1-.2 3.7z
            m1.14 5.51c-.14-1.21-.35-2.4-.62-3.57.45-.14.86-.35 1.23-.63a2.99 2.99 0 0 1-.6 4.2z
            M275 214a29 29 0 0 0-57.97 0h57.96z"/>
          <g class="sausage" transform="translate(95 170)">
            <path d="M47.6,3.7C46.6,1.5,44.5,0,42.1,0c-0.8,0-1.5,0.2-2.3,0.5C34.6,2.6,28.6,5,24,5c-2.5,0-5.5-0.8-8.6-1.8   c-0.1,0-0.1-0.1-0.2-0.1c0,0,0,0,0,0c-2.4-0.8-4.9-1.8-7.1-2.7C7.4,0.2,6.6,0,5.9,0C3.5,0,1.4,1.5,0.4,3.7C-0.5,6,0,8.3,1.7,10   c3.7,3.7,8.7,6.2,14.5,7.4v7.4c0,3.3,2.1,6.1,4.9,7.2L20.5,47c0,0.3,0.1,0.5,0.3,0.7c0.2,0.2,0.5,0.3,0.7,0.3h5.1   c0.3,0,0.5-0.1,0.7-0.3c0.2-0.2,0.3-0.5,0.3-0.7L26.8,32c2.9-1.1,4.9-3.9,4.9-7.2v-7.4c5.8-1.2,10.8-3.7,14.5-7.4   C48,8.3,48.5,5.9,47.6,3.7z M20.7,18v5.8h-2.5v-6.1C19.1,17.8,19.9,17.9,20.7,18z M22.7,23.8v-5.7c0.4,0,0.8,0,1.2,0   c0.4,0,0.8,0,1.3,0v5.7H22.7z M25.5,46h-3l0.6-13.5c0.3,0,0.6,0,0.9,0c0.3,0,0.6,0,0.9,0L25.5,46z M24,30.6c-2.8,0-5.2-2.1-5.7-4.8   h11.4C29.2,28.5,26.8,30.6,24,30.6z M29.8,23.8h-2.5V18c0.9-0.1,1.7-0.2,2.5-0.3V23.8z M44.9,8.6C40,13.4,32.6,16.1,24,16.1   c-8.6,0-16-2.7-20.9-7.5C1.5,7,2,5.2,2.3,4.5C2.9,3,4.4,2,5.9,2c0.5,0,1,0.1,1.5,0.3c0.3,0.1,0.6,0.3,1,0.4L7.7,6.6   C7.6,7.2,8,7.7,8.5,7.8c0.1,0,0.1,0,0.2,0c0.5,0,0.9-0.3,1-0.8l0.6-3.5c1.2,0.5,2.5,1,3.7,1.4l-0.6,3.5c-0.1,0.5,0.3,1.1,0.8,1.1   c0.1,0,0.1,0,0.2,0c0.5,0,0.9-0.3,1-0.8l0.5-3.2c1.3,0.4,2.5,0.7,3.7,1L19,10.1c-0.1,0.5,0.3,1.1,0.8,1.1c0.1,0,0.1,0,0.2,0   c0.5,0,0.9-0.3,1-0.8l0.6-3.6C22.4,7,23.2,7,24,7c0.4,0,0.9,0,1.3-0.1l-0.7,4c-0.1,0.5,0.3,1.1,0.8,1.1c0.1,0,0.1,0,0.2,0   c0.5,0,0.9-0.3,1-0.8l0.7-4.4c0-0.1,0-0.2,0-0.2c1.1-0.2,2.3-0.5,3.5-0.8l-0.5,3.4c-0.1,0.5,0.3,1.1,0.8,1.1c0.1,0,0.1,0,0.2,0   c0.5,0,0.9-0.3,1-0.8L33,5.2c1.2-0.4,2.4-0.8,3.6-1.3L36,7.5c-0.1,0.5,0.3,1.1,0.8,1.1c0.1,0,0.1,0,0.2,0c0.5,0,0.9-0.3,1-0.8   l0.7-4.4c0-0.1,0-0.2,0-0.3c0.7-0.3,1.3-0.5,2-0.8c0.5-0.2,1-0.3,1.5-0.3c1.5,0,3,1,3.6,2.5C46,5.2,46.5,7,44.9,8.6z"/>
          </g>
          <!-- <g class="fish" transform="translate(95 170)">
            <path d="M47.7,32.1c-3.6-3.8-8.1-5.8-12.2-5.6l-0.1,0c-1,0-1.9-0.8-1.9-1.8C33.2,13,26.7,4.4,16.7,1.3c0,0,0,0,0,0   C8.7-1,2,0.5,1.4,0.6c-0.1,0-0.2,0.1-0.3,0.1C0.8,0.8,0.6,1.1,0.6,1.4c0,0.2,0,0.3-0.1,0.5C-0.7,8,0.6,15.2,0.9,15.4c0,0,0,0,0,0.1   c0.9,3.5,2.4,6.6,4.6,9.3c4.4,5.4,11.2,8.5,19.1,8.8c0.5,0,1,0.2,1.3,0.6c0.4,0.4,0.5,0.9,0.5,1.4c-0.2,4.1,1.9,8.7,5.6,12.2   c0.2,0.2,0.4,0.3,0.7,0.3c0.2,0,0.5-0.1,0.7-0.3c3-2.7,3.8-7.2,2.1-11.8c-0.1-0.2,0-0.4,0.1-0.5c0.1-0.1,0.3-0.2,0.5-0.1   c1.6,0.6,3.2,0.9,4.8,0.9c2.8,0,5.1-1,6.8-2.9C48.1,33,48.1,32.4,47.7,32.1z M2.7,14.1C2.6,14.1,2.6,14.1,2.7,14.1   C2.2,12.1,2,10,2,7.8L4.1,8c0,0,0.1,0,0.1,0c0.5,0,0.9-0.4,1-0.9c0-0.6-0.4-1-0.9-1.1L2.1,5.8c0.1-1.1,0.2-2.2,0.4-3.3c0,0,0,0,0,0   C6.8,1.7,11.1,1.9,15.4,3c0.1,3.1-1,6-3.2,8.2c-2.1,2.1-4.9,3.2-7.8,3.2c-0.5,0-1.1,0-1.6-0.1C2.7,14.2,2.7,14.2,2.7,14.1z    M36.8,33.5c-0.9-0.3-1.9-0.1-2.6,0.5c-0.7,0.7-0.9,1.7-0.6,2.6c1.3,3.4,0.9,6.7-0.9,8.9c-2.9-3-4.5-6.7-4.3-9.9   c0.1-1.1-0.3-2.1-1-2.9c-0.7-0.8-1.7-1.2-2.7-1.3c-7.3-0.2-13.5-3.1-17.6-8c-1.7-2.1-2.9-4.5-3.8-7.1c0.4,0,0.7,0.1,1.1,0.1   c3.5,0,6.8-1.4,9.2-3.8c2.4-2.4,3.8-5.6,3.8-9c8.5,3.1,13.8,10.7,14.1,21.1c0.1,2.2,1.9,3.9,4.1,3.8c3.3-0.2,6.9,1.5,9.9,4.3   C43.4,34.5,40.2,34.8,36.8,33.5z"/><path d="M11,4.5l-1-0.1c-0.6,0-1,0.4-1.1,0.9c0,0.5,0.4,1,0.9,1.1l1,0.1c0,0,0.1,0,0.1,0c0.5,0,0.9-0.4,1-0.9   C11.9,5.1,11.5,4.6,11,4.5z"/><path d="M18.6,12c-0.4-0.4-1-0.4-1.4,0l-0.8,0.8c-0.4,0.4-0.4,1,0,1.4c0.2,0.2,0.5,0.3,0.7,0.3c0.3,0,0.5-0.1,0.7-0.3l0.8-0.8   C19,13,19,12.3,18.6,12z"/><path d="M14.2,16.3c-0.4-0.4-1-0.4-1.4,0l-0.8,0.8c-0.4,0.4-0.4,1,0,1.4c0.2,0.2,0.5,0.3,0.7,0.3c0.3,0,0.5-0.1,0.7-0.3l0.8-0.8   C14.6,17.3,14.6,16.7,14.2,16.3z"/><path d="M25.8,20.6l-0.8,0.8c-0.4,0.4-0.4,1,0,1.4c0.2,0.2,0.5,0.3,0.7,0.3c0.3,0,0.5-0.1,0.7-0.3l0.8-0.8c0.4-0.4,0.4-1,0-1.4   C26.8,20.2,26.2,20.2,25.8,20.6z"/><path d="M21.4,24.9l-0.8,0.8c-0.4,0.4-0.4,1,0,1.4c0.2,0.2,0.5,0.3,0.7,0.3c0.3,0,0.5-0.1,0.7-0.3l0.8-0.8c0.4-0.4,0.4-1,0-1.4   C22.4,24.5,21.8,24.5,21.4,24.9z"/><path d="M25.1,14.1c-0.4-0.4-1-0.4-1.4,0l-0.8,0.8c-0.4,0.4-0.4,1,0,1.4c0.2,0.2,0.5,0.3,0.7,0.3c0.3,0,0.5-0.1,0.7-0.3l0.8-0.8   C25.5,15.1,25.5,14.5,25.1,14.1z"/><path d="M20.7,18.4c-0.4-0.4-1-0.4-1.4,0l-0.8,0.8c-0.4,0.4-0.4,1,0,1.4c0.2,0.2,0.5,0.3,0.7,0.3c0.3,0,0.5-0.1,0.7-0.3l0.8-0.8   C21.1,19.5,21.1,18.8,20.7,18.4z"/><path d="M14.9,22.8l-0.8,0.8c-0.4,0.4-0.4,1,0,1.4c0.2,0.2,0.5,0.3,0.7,0.3c0.3,0,0.5-0.1,0.7-0.3l0.8-0.8c0.4-0.4,0.4-1,0-1.4   C15.9,22.4,15.3,22.4,14.9,22.8z"/>
          </g> -->
          <path class="taco-left" d="M-17 191a1 1 0 0 0 0 2h2a1 1 0 0 0 0-2h-2zm19 9a1 1 0 0 1 1-1h2a1 1 0 0 1 0 2H3a1 1 0 0 1-1-1zm-14 5a1 1 0 0 0 0 2h2a1 1 0 0 0 0-2h-2zm-25 1a1 1 0 0 0 0 2h2a1 1 0 0 0 0-2h-2zm5 4a1 1 0 0 0 0 2h2a1 1 0 0 0 0-2h-2zm9 0a1 1 0 0 1 1-1h2a1 1 0 0 1 0 2h-2a1 1 0 0 1-1-1zm15 1a1 1 0 0 1 1-1h2a1 1 0 0 1 0 2h-2a1 1 0 0 1-1-1zm12-2a1 1 0 0 0 0 2h2a1 1 0 0 0 0-2H4zm-11-14a1 1 0 0 1 1-1h2a1 1 0 0 1 0 2h-2a1 1 0 0 1-1-1zm-19 0a1 1 0 0 0 0 2h2a1 1 0 0 0 0-2h-2zm6 5a1 1 0 0 1 1-1h2a1 1 0 0 1 0 2h-2a1 1 0 0 1-1-1zm-25 15c0-.47.01-.94.03-1.4a5 5 0 0 1-1.7-8 3.99 3.99 0 0 1 1.88-5.18 5 5 0 0 1 3.4-6.22 3 3 0 0 1 1.46-1.05 5 5 0 0 1 7.76-3.27A30.86 30.86 0 0 1-14 184c6.79 0 13.06 2.18 18.17 5.88a5 5 0 0 1 7.76 3.27 3 3 0 0 1 1.47 1.05 5 5 0 0 1 3.4 6.22 4 4 0 0 1 1.87 5.18 4.98 4.98 0 0 1-1.7 8c.02.46.03.93.03 1.4v1h-62v-1zm.83-7.17a30.9 30.9 0 0 0-.62 3.57 3 3 0 0 1-.61-4.2c.37.28.78.49 1.23.63zm1.49-4.61c-.36.87-.68 1.76-.96 2.68a2 2 0 0 1-.21-3.71c.33.4.73.75 1.17 1.03zm2.32-4.54c-.54.86-1.03 1.76-1.49 2.68a3 3 0 0 1-.07-4.67 3 3 0 0 0 1.56 1.99zm1.14-1.7c.35-.5.72-.98 1.1-1.46a1 1 0 1 0-1.1 1.45zm5.34-5.77c-1.03.86-2 1.79-2.9 2.77a3 3 0 0 0-1.11-.77 3 3 0 0 1 4-2zm42.66 2.77c-.9-.98-1.87-1.9-2.9-2.77a3 3 0 0 1 4.01 2 3 3 0 0 0-1.1.77zm1.34 1.54c.38.48.75.96 1.1 1.45a1 1 0 1 0-1.1-1.45zm3.73 5.84c-.46-.92-.95-1.82-1.5-2.68a3 3 0 0 0 1.57-1.99 3 3 0 0 1-.07 4.67zm1.8 4.53c-.29-.9-.6-1.8-.97-2.67.44-.28.84-.63 1.17-1.03a2 2 0 0 1-.2 3.7zm1.14 5.51c-.14-1.21-.35-2.4-.62-3.57.45-.14.86-.35 1.23-.63a2.99 2.99 0 0 1-.6 4.2zM15 214a29 29 0 0 0-57.97 0h57.96z"/>
      </g>
  </g>
</svg>
